<?xml version="1.0" encoding="iso-8859-1"?>
<!-- Uploaded to: SVG Repo, www.svgrepo.com, Generator: SVG Repo Mixer Tools -->
<svg fill="#000000" id="Layer_1" version="1.1" viewBox="0 0 512 512"
     xml:space="preserve" xmlns="http://www.w3.org/2000/svg">
<g>
	<g>
		<path d="M59.072,0v98.464h98.464V0H59.072z M141.536,82.464H75.072V16h66.464V82.464z"/>
	</g>
</g>
  <g>
	<g>
		<path d="M59.072,137.84v98.464h98.464V137.84H59.072z M141.536,220.304H75.072V153.84h66.464V220.304z"/>
	</g>
</g>
  <g>
	<g>
		<path d="M59.072,275.696v98.464h98.464v-98.464H59.072z M141.536,358.16H75.072v-66.464h66.464V358.16z"/>
	</g>
</g>
  <g>
	<g>
		<path d="M59.072,413.536V512h98.464v-98.464H59.072z M141.536,496H75.072v-66.464h66.464V496z"/>
	</g>
</g>
  <g>
	<g>
		<rect height="16" width="216.608" x="196.928" y="21.536"/>
	</g>
</g>
  <g>
	<g>
		<rect height="16" width="256" x="196.928" y="60.928"/>
	</g>
</g>
  <g>
	<g>
		<rect height="16" width="216.608" x="196.928" y="159.392"/>
	</g>
</g>
  <g>
	<g>
		<rect height="16" width="256" x="196.928" y="198.768"/>
	</g>
</g>
  <g>
	<g>
		<rect height="16" width="216.608" x="196.928" y="297.232"/>
	</g>
</g>
  <g>
	<g>
		<rect height="16" width="256" x="196.928" y="336.64"/>
	</g>
</g>
  <g>
	<g>
		<rect height="16" width="216.608" x="196.928" y="435.04"/>
	</g>
</g>
  <g>
	<g>
		<rect height="16" width="256" x="196.928" y="474.464"/>
	</g>
</g>
</svg>
