<?xml version="1.0" encoding="iso-8859-1"?>
<!-- Uploaded to: SVG Repo, www.svgrepo.com, Generator: SVG Repo Mixer Tools -->
<svg height="800px" id="Layer_1" version="1.1" viewBox="0 0 512 512" width="800px"
     xml:space="preserve" xmlns="http://www.w3.org/2000/svg">
<path d="M256,0C114.616,0,0,114.616,0,256s114.616,256,256,256s256-114.616,256-256S397.384,0,256,0z"
      style="fill:#E5E5E5;"/>
  <polygon points="199.32,187.152 172.76,108.56 104,108.56 104,87.56 187.832,87.56 219.216,180.424 "/>
  <circle cx="351.688" cy="384" r="40.4"/>
  <circle cx="229.72" cy="384" r="40.4"/>
  <polygon points="148.376,169.512 440,169.512 384.416,325.472 196.944,325.472 " style="fill:#F00000;"/>
  <path d="M329.6,297.224c-5.68,3.176-15.376,6.344-26.064,6.344c-16.376,0-31.408-6.688-40.768-19.048
	c-4.52-5.68-7.848-12.864-9.36-21.72h-10.864v-11.872h9.184c0-0.832,0-1.84,0-2.84c0-1.664,0.168-3.336,0.168-5.008h-9.36v-11.856
	h11.192c2.168-9.024,6.184-16.704,11.528-22.896c9.528-10.696,22.896-17.04,38.6-17.04c10.192,0,19.048,2.336,25.064,5.008
	l-4.68,19.048c-4.336-1.84-11.184-4.016-18.544-4.016c-8.008,0-15.376,2.68-20.544,9.024c-2.336,2.672-4.176,6.52-5.352,10.864
	h41.608v11.856h-44.12c-0.16,1.68-0.16,3.512-0.16,5.184c0,1.008,0,1.664,0,2.672h44.28V262.8h-41.944
	c1.168,5.008,3,8.856,5.512,11.696c5.344,6.016,13.208,8.512,21.56,8.512c7.68,0,15.536-2.496,19.048-4.336L329.6,297.224z" style="fill:#FFFFFF;"/>
</svg>
